HIERARCHY
ROOT Hips
{
    OFFSET   0.000000   0.000000   0.000000
    CHANNELS 6 Xposition Yposition Zposition Zrotation Xrotation Yrotation
    JOINT Chest
    {
        OFFSET   0.000000   8.007240   0.000000
        CHANNELS 3 Zrotation Xrotation Yrotation
        JOINT Chest2
        {
            OFFSET   0.000000  22.077100   0.000000
            CHANNELS 3 Zrotation Xrotation Yrotation
            JOINT Neck
            {
                OFFSET   0.000000  23.254800   0.000000
                CHANNELS 3 Zrotation Xrotation Yrotation
                JOINT Head
                {
                    OFFSET   0.000000  14.370000   1.956600
                    CHANNELS 3 Zrotation Xrotation Yrotation
                    End Site
                    {
                        OFFSET   0.000000  19.566000   0.000000
                    }
                }
            }
            JOINT LeftCollar
            {
                OFFSET   3.911900  19.017000  -0.467064
                CHANNELS 3 Zrotation Xrotation Yrotation
                JOINT LeftShoulder
                {
                    OFFSET  10.383700   0.000000   0.000000
                    CHANNELS 3 Zrotation Xrotation Yrotation
                    JOINT LeftElbow
                    {
                        OFFSET  26.662100   0.001476   0.000517
                        CHANNELS 3 Zrotation Xrotation Yrotation
                        JOINT LeftWrist
                        {
                            OFFSET  28.869000  -0.000025  -0.000106
                            CHANNELS 3 Zrotation Xrotation Yrotation
                            JOINT LeftFinger0
                            {
                                OFFSET   2.044660  -2.323460   3.252850
                                CHANNELS 3 Zrotation Xrotation Yrotation
                                JOINT LeftFinger01
                                {
                                    OFFSET   3.088130   0.000000   0.000000
                                    CHANNELS 3 Zrotation Xrotation Yrotation
                                    JOINT LeftFinger02
                                    {
                                        OFFSET   2.639460   0.000000   0.000000
                                        CHANNELS 3 Zrotation Xrotation Yrotation
                                        End Site
                                        {
                                            OFFSET   2.582190   0.000000   0.000000
                                        }
                                    }
                                }
                            }
                            JOINT LeftFinger1
                            {
                                OFFSET   8.364480   0.000000   3.252850
                                CHANNELS 3 Zrotation Xrotation Yrotation
                                JOINT LeftFinger11
                                {
                                    OFFSET   4.646930   0.000000   0.000000
                                    CHANNELS 3 Zrotation Xrotation Yrotation
                                    JOINT LeftFinger12
                                    {
                                        OFFSET   2.323460   0.000000   0.000000
                                        CHANNELS 3 Zrotation Xrotation Yrotation
                                        End Site
                                        {
                                            OFFSET   2.273050   0.000000   0.000000
                                        }
                                    }
                                }
                            }
                            JOINT LeftFinger2
                            {
                                OFFSET   8.364490   0.000015   1.078090
                                CHANNELS 3 Zrotation Xrotation Yrotation
                                JOINT LeftFinger21
                                {
                                    OFFSET   5.111620   0.000000   0.000000
                                    CHANNELS 3 Zrotation Xrotation Yrotation
                                    JOINT LeftFinger22
                                    {
                                        OFFSET   2.788160   0.000016   0.000000
                                        CHANNELS 3 Zrotation Xrotation Yrotation
                                        End Site
                                        {
                                            OFFSET   2.727660   0.000000   0.000000
                                        }
                                    }
                                }
                            }
                            JOINT LeftFinger3
                            {
                                OFFSET   7.899780   0.000017  -1.078090
                                CHANNELS 3 Zrotation Xrotation Yrotation
                                JOINT LeftFinger31
                                {
                                    OFFSET   4.646930   0.000000   0.000000
                                    CHANNELS 3 Zrotation Xrotation Yrotation
                                    JOINT LeftFinger32
                                    {
                                        OFFSET   2.323470   0.000000   0.000000
                                        CHANNELS 3 Zrotation Xrotation Yrotation
                                        End Site
                                        {
                                            OFFSET   2.273050   0.000000   0.000000
                                        }
                                    }
                                }
                            }
                            JOINT LeftFinger4
                            {
                                OFFSET   7.435090   0.000000  -3.252850
                                CHANNELS 3 Zrotation Xrotation Yrotation
                                JOINT LeftFinger41
                                {
                                    OFFSET   3.717550   0.000000   0.000000
                                    CHANNELS 3 Zrotation Xrotation Yrotation
                                    JOINT LeftFinger42
                                    {
                                        OFFSET   1.858770   0.000000   0.000000
                                        CHANNELS 3 Zrotation Xrotation Yrotation
                                        End Site
                                        {
                                            OFFSET   1.818440   0.000000   0.000000
                                        }
                                    }
                                }
                            }
                        }
                    }
                }
            }
            JOINT RightCollar
            {
                OFFSET  -3.911900  19.017000  -0.467063
                CHANNELS 3 Zrotation Xrotation Yrotation
                JOINT RightShoulder
                {
                    OFFSET -10.383700   0.000019   0.000000
                    CHANNELS 3 Zrotation Xrotation Yrotation
                    JOINT RightElbow
                    {
                        OFFSET -26.662100   0.001175   0.000102
                        CHANNELS 3 Zrotation Xrotation Yrotation
                        JOINT RightWrist
                        {
                            OFFSET -28.869000   0.000016  -0.000079
                            CHANNELS 3 Zrotation Xrotation Yrotation
                            JOINT RightFinger0
                            {
                                OFFSET  -2.044660  -2.323490   3.252850
                                CHANNELS 3 Zrotation Xrotation Yrotation
                                JOINT RightFinger01
                                {
                                    OFFSET  -3.088140   0.000000   0.000000
                                    CHANNELS 3 Zrotation Xrotation Yrotation
                                    JOINT RightFinger02
                                    {
                                        OFFSET  -2.639460   0.000000   0.000000
                                        CHANNELS 3 Zrotation Xrotation Yrotation
                                        End Site
                                        {
                                            OFFSET  -2.582190   0.000000   0.000000
                                        }
                                    }
                                }
                            }
                            JOINT RightFinger1
                            {
                                OFFSET  -8.364480   0.000000   3.252850
                                CHANNELS 3 Zrotation Xrotation Yrotation
                                JOINT RightFinger11
                                {
                                    OFFSET  -4.646930   0.000000   0.000000
                                    CHANNELS 3 Zrotation Xrotation Yrotation
                                    JOINT RightFinger12
                                    {
                                        OFFSET  -2.323470   0.000000   0.000000
                                        CHANNELS 3 Zrotation Xrotation Yrotation
                                        End Site
                                        {
                                            OFFSET  -2.273050   0.000000   0.000000
                                        }
                                    }
                                }
                            }
                            JOINT RightFinger2
                            {
                                OFFSET  -8.364480   0.000000   1.078090
                                CHANNELS 3 Zrotation Xrotation Yrotation
                                JOINT RightFinger21
                                {
                                    OFFSET  -5.111620   0.000000   0.000000
                                    CHANNELS 3 Zrotation Xrotation Yrotation
                                    JOINT RightFinger22
                                    {
                                        OFFSET  -2.788160   0.000000   0.000000
                                        CHANNELS 3 Zrotation Xrotation Yrotation
                                        End Site
                                        {
                                            OFFSET  -2.727660   0.000000   0.000000
                                        }
                                    }
                                }
                            }
                            JOINT RightFinger3
                            {
                                OFFSET  -7.899780   0.000000  -1.078090
                                CHANNELS 3 Zrotation Xrotation Yrotation
                                JOINT RightFinger31
                                {
                                    OFFSET  -4.646930   0.000000   0.000000
                                    CHANNELS 3 Zrotation Xrotation Yrotation
                                    JOINT RightFinger32
                                    {
                                        OFFSET  -2.323470   0.000000   0.000000
                                        CHANNELS 3 Zrotation Xrotation Yrotation
                                        End Site
                                        {
                                            OFFSET  -2.273050   0.000000   0.000000
                                        }
                                    }
                                }
                            }
                            JOINT RightFinger4
                            {
                                OFFSET  -7.435090   0.000000  -3.252850
                                CHANNELS 3 Zrotation Xrotation Yrotation
                                JOINT RightFinger41
                                {
                                    OFFSET  -3.717550   0.000000   0.000000
                                    CHANNELS 3 Zrotation Xrotation Yrotation
                                    JOINT RightFinger42
                                    {
                                        OFFSET  -1.858770   0.000000   0.000000
                                        CHANNELS 3 Zrotation Xrotation Yrotation
                                        End Site
                                        {
                                            OFFSET  -1.818440   0.000000   0.000000
                                        }
                                    }
                                }
                            }
                        }
                    }
                }
            }
        }
    }
    JOINT LeftHip
    {
        OFFSET   9.783040   0.000000   0.000000
        CHANNELS 3 Zrotation Xrotation Yrotation
        JOINT LeftKnee
        {
            OFFSET   0.000032 -41.789100  -0.002222
            CHANNELS 3 Zrotation Xrotation Yrotation
            JOINT LeftAnkle
            {
                OFFSET   0.000087 -41.133200  -0.000135
                CHANNELS 3 Zrotation Xrotation Yrotation
                JOINT LeftToe
                {
                    OFFSET   0.000000  -6.358960  14.674500
                    CHANNELS 3 Zrotation Xrotation Yrotation
                    End Site
                    {
                        OFFSET   0.000000   0.000000   3.913200
                    }
                }
            }
        }
    }
    JOINT RightHip
    {
        OFFSET  -9.783040   0.000000   0.000000
        CHANNELS 3 Zrotation Xrotation Yrotation
        JOINT RightKnee
        {
            OFFSET   0.000047 -41.789100  -0.000896
            CHANNELS 3 Zrotation Xrotation Yrotation
            JOINT RightAnkle
            {
                OFFSET  -0.000117 -41.133300  -0.000248
                CHANNELS 3 Zrotation Xrotation Yrotation
                JOINT RightToe
                {
                    OFFSET   0.000000  -6.358970  14.674500
                    CHANNELS 3 Zrotation Xrotation Yrotation
                    End Site
                    {
                        OFFSET   0.000000   0.000000   3.913200
                    }
                }
            }
        }
    }
}
MOTION
Frames: 4
Frame Time:   0.016667
 -5.831040  88.823200  -0.365062  -0.942390 -20.082000   1.416700   1.189500   6.957550  -0.163068   2.426270  13.910200  -0.478069   2.453730   1.186470  -0.050866   4.035900   2.392550   5.583950  10.463200  -6.895750  -0.272573 -46.561500 -20.937800 -88.256400  21.043400 -31.397400 -58.189600  37.300400  46.240300 -29.384900  41.871200  30.122900 -62.143700 -24.288600  -0.003962   0.002916  -7.144300  -0.013791  -0.000066 -11.892400   0.933556  -4.429430  -9.759660  -0.010799   0.004191  -6.831760   0.003401   0.003544 -11.367300   0.090030  -0.447692 -11.367700   0.004305   0.006825  -7.570820   0.000081   0.007060  -9.210850  -0.157512   0.970876  -9.212210  -0.001158  -0.000183  -6.135330  -0.001420  -0.000210  -6.933930  -0.522963   4.295160 -10.430000  -0.002535  -0.000641  -6.946320  -0.000667  -0.000480 -12.404700  -8.752330   0.217202  36.483400 -15.819500  81.474600 -43.772100 -23.988300  40.533200 -46.412600  50.235500  43.022700 -45.684500  34.028600  68.763000  21.360200  -0.004949  -0.007067   5.680090   0.003410  -0.000262  14.410900   1.468280   5.696820  11.850300  -0.007641  -0.004571   8.295190  -0.006474   0.001694  12.685300  -0.277402  -1.232880  12.688100  -0.006812  -0.000566   8.450310  -0.005354  -0.000339  13.161500  -1.244080  -5.301740  13.219000  -0.003307  -0.004652   8.803840   0.006974  -0.002190  12.816900  -1.537930  -6.709820  19.361000  -0.003657  -0.005694  12.894500  -0.003441  -0.000402   4.336920  14.937300   0.464486   6.040140  14.157800   1.092980  -8.865110  -9.612950  -0.623299  -0.000000   0.000000  -0.000000   5.888690  18.197900  -2.257210   0.167021   6.871470  -7.845540  -5.726250  -6.339980  -9.619000  -0.000000   0.000000  -0.000000
 -5.850900  88.826300  -0.334712  -0.934785 -20.064300   1.417620   1.187540   6.939900  -0.167053   2.422610  13.874800  -0.485620   2.469500   1.218280  -0.051374   4.062140   2.456450   5.599870  10.478900  -6.880020  -0.237691 -46.532700 -20.978200 -88.195300  20.974900 -31.383900 -58.144600  37.260100  46.267800 -29.402400  41.903100  30.236700 -62.253000 -24.359600  -0.004016   0.002965  -7.179820  -0.014141  -0.000068 -11.997900   0.964272  -4.525850  -9.847680  -0.005580   0.004201  -6.893390   0.003399   0.003527 -11.318200   0.116554  -0.582203 -11.318800   0.004318   0.006868  -7.538300   0.000081   0.007003  -9.210230  -0.136962   0.842566  -9.211260  -0.001229  -0.000249  -6.134700  -0.001408  -0.000268  -6.935260  -0.527242   4.324950 -10.432800  -0.002593  -0.000717  -6.948200  -0.000762  -0.000554 -12.393300  -8.740660   0.217849  36.460600 -15.803000  81.452500 -43.828300 -24.012500  40.531200 -46.400500  50.184200  42.981500 -45.636600  33.993900  68.740600  21.374400  -0.004915  -0.007016   5.687190   0.003370  -0.000326  14.398400   1.457940   5.659870  11.839400  -0.007752  -0.004628   8.287580  -0.006553   0.001748  12.717900  -0.275060  -1.218870  12.720700  -0.006955  -0.000588   8.471980  -0.005441  -0.000337  13.230600  -1.247480  -5.291240  13.288200  -0.003368  -0.004715   8.849960   0.007055  -0.002221  12.885300  -1.538510  -6.678760  19.462900  -0.003758  -0.005776  12.962300  -0.003536  -0.000315   4.344920  14.935300   0.459671   6.036170  14.182300   1.105230  -8.869840  -9.642360  -0.632443  -0.000000   0.000000  -0.000000   5.888660  18.207900  -2.255550   0.182379   6.866350  -7.828470  -5.740940  -6.361870  -9.636770  -0.000000   0.000000   0.000000
 -5.870270  88.828400  -0.305697  -0.933413 -20.043700   1.401210   1.185760   6.923260  -0.162559   2.418340  13.841600  -0.476498   2.486480   1.250220  -0.051814   4.090390   2.520740   5.601980  10.489100  -6.866430  -0.216844 -46.508900 -21.025400 -88.154200  20.921900 -31.353700 -58.073000  37.118200  46.315600 -29.368100  41.973800  30.425400 -62.349500 -24.444400  -0.004080   0.003016  -7.222230  -0.006998  -0.000069 -12.090000   0.979731  -4.557980  -9.923580  -0.001544   0.004208  -6.946520   0.003398   0.003521 -11.342700   0.115393  -0.576386 -11.343300   0.004311   0.006919  -7.554630   0.000040   0.006957  -9.215600  -0.149754   0.918676  -9.216520  -0.001305  -0.000319  -6.138190  -0.001399  -0.000331  -6.920200  -0.542550   4.465520 -10.411400  -0.002651  -0.000788  -6.933980  -0.000846  -0.000616 -12.385900  -8.741030   0.203062  36.392100 -15.803700  81.421100 -43.778000 -24.055800  40.493400 -46.445400  50.197000  42.958000 -45.634100  34.015400  68.763800  21.405400  -0.004880  -0.006964   5.702680   0.003329  -0.000386  14.457400   1.449920   5.605130  11.887000  -0.007849  -0.004682   8.320890  -0.006644   0.001800  12.752000  -0.273108  -1.206620  12.754800  -0.007068  -0.000604   8.494700  -0.005539  -0.000347  13.306900  -1.243470  -5.244390  13.363800  -0.003436  -0.004793   8.900310   0.007144  -0.002239  12.945600  -1.539120  -6.664980  19.553100  -0.003859  -0.005855  13.022400  -0.003628  -0.000210   4.352550  14.936300   0.456545   6.032180  14.202700   1.118030  -8.874090  -9.671550  -0.631071  -0.000000   0.000000   0.000000   5.886300  18.207700  -2.248080   0.194956   6.872980  -7.815200  -5.754090  -6.390070  -9.642900   0.000000   0.000000  -0.000000
 -5.887660  88.829900  -0.276932  -0.934546 -20.017800   1.376770   1.183730   6.906250  -0.157074   2.413300  13.807700  -0.464177   2.502450   1.280570  -0.052167   4.116870   2.581860   5.602730  10.494000  -6.850020  -0.202793 -46.496000 -21.088000 -88.133300  20.871000 -31.315700 -58.003800  36.870000  46.380400 -29.222100  42.090000  30.662100 -62.460100 -24.498100  -0.004145   0.003068  -7.249050   0.000148  -0.000069 -12.138400   0.990779  -4.594540  -9.963970   0.000641   0.004215  -6.974790   0.003397   0.003518 -11.367400   0.107262  -0.535662 -11.367800   0.004304   0.006967  -7.570970   0.000000   0.006913  -9.220350  -0.178597   1.096870  -9.221780  -0.001378  -0.000388  -6.141680  -0.001393  -0.000387  -6.903610  -0.567463   4.674280 -10.390000  -0.002703  -0.000860  -6.919750  -0.000928  -0.000677 -12.382000  -8.741410   0.176945  36.343300 -15.819500  81.394800 -43.687800 -24.107900  40.427800 -46.493900  50.231100  42.916400 -45.631700  34.036800  68.787000  21.424400  -0.004844  -0.006910   5.712200   0.003288  -0.000445  14.517500   1.436050   5.529420  11.934600  -0.007944  -0.004737   8.354200  -0.006734   0.001852  12.771700  -0.272015  -1.199630  12.774500  -0.007177  -0.000618   8.507820  -0.005641  -0.000363  13.352000  -1.239440  -5.206560  13.408300  -0.003504  -0.004873   8.929930   0.007231  -0.002256  12.978000  -1.539520  -6.649420  19.601100  -0.003959  -0.005932  13.054300  -0.003720  -0.000105   4.359110  14.938200   0.453805   6.028770  14.214100   1.130160  -8.878530  -9.697710  -0.626105   0.000000   0.000000  -0.000000   5.883260  18.205300  -2.239100   0.202761   6.883150  -7.801010  -5.762930  -6.418880  -9.646740   0.000000   0.000000  -0.000000
